<?xml version="1.0" encoding="utf-8"?>
<!-- Generator: Adobe Illustrator 23.0.1, SVG Export Plug-In . SVG Version: 6.00 Build 0)  -->
<svg version="1.1" id="Layer_1" xmlns="http://www.w3.org/2000/svg" xmlns:xlink="http://www.w3.org/1999/xlink" width="200" height="58.4" x="0px" y="0px"
	 viewBox="0 0 200.8 59.9" style="enable-background:new 0 0 200.8 59.9;" xml:space="preserve">
<style type="text/css">
	.st0{fill:url(#SVGID_1_);}
	.st1{fill:url(#SVGID_2_);}
	.st2{fill-rule:evenodd;clip-rule:evenodd;fill:url(#SVGID_3_);}
	.st3{fill:none;stroke:url(#SVGID_4_);stroke-width:1.5;stroke-miterlimit:10;}
	.st4{fill:#1A1A1A;}
</style>
<g>
	<linearGradient id="SVGID_1_" gradientUnits="userSpaceOnUse" x1="29.6949" y1="28.2549" x2="29.6949" y2="41.1429">
		<stop  offset="5.319245e-02" style="stop-color:#A887F9"/>
		<stop  offset="1" style="stop-color:#8224E3"/>
	</linearGradient>
	<path class="st0" d="M29.7,15.5c-7.7,0-14,6.3-14,14c0,7.7,6.3,14,14,14c7.7,0,14-6.3,14-14C43.7,21.7,37.4,15.5,29.7,15.5z
		 M29.7,38c-4.7,0-8.5-3.8-8.5-8.5s3.8-8.5,8.5-8.5c4.7,0,8.5,3.8,8.5,8.5S34.4,38,29.7,38z"/>
	<linearGradient id="SVGID_2_" gradientUnits="userSpaceOnUse" x1="21.1678" y1="29.4561" x2="38.222" y2="29.4561">
		<stop  offset="4.078348e-02" style="stop-color:#A887F9"/>
		<stop  offset="0.9883" style="stop-color:#8224E3"/>
	</linearGradient>
	<path class="st1" d="M29.7,20.9c-4.7,0-8.5,3.8-8.5,8.5S25,38,29.7,38c4.7,0,8.5-3.8,8.5-8.5S34.4,20.9,29.7,20.9z M29.7,35.2
		c-3.2,0-5.7-2.6-5.7-5.7c0-3.2,2.6-5.7,5.7-5.7c3.2,0,5.7,2.6,5.7,5.7C35.4,32.6,32.9,35.2,29.7,35.2z"/>
	<linearGradient id="SVGID_3_" gradientUnits="userSpaceOnUse" x1="44.2082" y1="6.569" x2="49.7376" y2="6.569">
		<stop  offset="5.434346e-07" style="stop-color:#39B54A"/>
		<stop  offset="1" style="stop-color:#D9E021"/>
	</linearGradient>
	<circle class="st2" cx="47" cy="6.6" r="2.8"/>
	<linearGradient id="SVGID_4_" gradientUnits="userSpaceOnUse" x1="8.7671" y1="51.0985" x2="51.0985" y2="8.7671">
		<stop  offset="2.695861e-06" style="stop-color:#8224E3"/>
		<stop  offset="1" style="stop-color:#A887F9;stop-opacity:0"/>
	</linearGradient>
	<circle class="st3" cx="29.9" cy="29.9" r="29.2"/>
	<g>
		<path class="st4" d="M83,42.2c-1.7,0-3.2-0.4-4.5-1.2c-1.3-0.8-2.4-1.9-3.2-3.2c-0.8-1.4-1.2-2.9-1.2-4.6V18.6
			c0-0.5,0.2-0.9,0.5-1.2c0.3-0.3,0.7-0.5,1.2-0.5c0.5,0,0.9,0.2,1.2,0.5c0.3,0.3,0.5,0.7,0.5,1.2v8.7c0.8-0.9,1.7-1.6,2.7-2.1
			c1.1-0.5,2.2-0.8,3.5-0.8c1.6,0,3,0.4,4.2,1.2c1.2,0.8,2.2,1.8,2.9,3.2c0.7,1.3,1.1,2.9,1.1,4.6c0,1.7-0.4,3.2-1.2,4.6
			c-0.8,1.4-1.8,2.4-3.2,3.2C86.2,41.8,84.7,42.2,83,42.2z M83,39.3c1.1,0,2.1-0.3,2.9-0.8c0.9-0.5,1.5-1.3,2-2.2
			c0.5-0.9,0.8-2,0.8-3.1c0-1.2-0.3-2.2-0.8-3.1c-0.5-0.9-1.2-1.6-2-2.1c-0.9-0.5-1.8-0.8-2.9-0.8c-1.1,0-2,0.3-2.9,0.8
			c-0.9,0.5-1.6,1.2-2,2.1c-0.5,0.9-0.7,1.9-0.7,3.1c0,1.1,0.2,2.2,0.7,3.1c0.5,0.9,1.2,1.6,2,2.2C81,39.1,82,39.3,83,39.3z"/>
		<path class="st4" d="M105.1,42.2c-1.8,0-3.4-0.4-4.8-1.1c-1.4-0.8-2.5-1.8-3.3-3.2c-0.8-1.3-1.2-2.9-1.2-4.6
			c0-1.8,0.4-3.3,1.1-4.7c0.7-1.3,1.8-2.4,3.1-3.2c1.3-0.8,2.8-1.1,4.5-1.1c1.7,0,3.1,0.4,4.3,1.1c1.2,0.7,2.1,1.8,2.8,3.1
			c0.6,1.3,0.9,2.8,0.9,4.5c0,0.4-0.1,0.7-0.4,1s-0.6,0.4-1.1,0.4h-13v-2.6h12.9l-1.3,0.9c0-1.1-0.2-2-0.6-2.9c-0.4-0.8-1-1.5-1.7-2
			c-0.8-0.5-1.7-0.7-2.7-0.7c-1.2,0-2.3,0.3-3.1,0.8c-0.9,0.5-1.5,1.3-2,2.2c-0.5,0.9-0.7,2-0.7,3.2c0,1.2,0.3,2.2,0.8,3.2
			c0.5,0.9,1.3,1.7,2.2,2.2c0.9,0.5,2,0.8,3.3,0.8c0.7,0,1.3-0.1,2-0.4c0.7-0.2,1.3-0.5,1.7-0.9c0.3-0.2,0.7-0.4,1-0.4
			c0.4,0,0.7,0.1,1,0.3c0.4,0.3,0.6,0.7,0.6,1.1c0,0.4-0.2,0.7-0.5,1c-0.7,0.6-1.6,1.1-2.7,1.4C107.1,42,106.1,42.2,105.1,42.2z"/>
		<path class="st4" d="M124.5,42.2c-1.8,0-3.4-0.4-4.8-1.1c-1.4-0.8-2.5-1.8-3.3-3.2c-0.8-1.3-1.2-2.9-1.2-4.6
			c0-1.8,0.4-3.3,1.1-4.7c0.7-1.3,1.8-2.4,3.1-3.2c1.3-0.8,2.8-1.1,4.5-1.1c1.7,0,3.1,0.4,4.3,1.1c1.2,0.7,2.1,1.8,2.8,3.1
			c0.6,1.3,1,2.8,1,4.5c0,0.4-0.1,0.7-0.4,1c-0.3,0.3-0.6,0.4-1.1,0.4h-13v-2.6h12.9l-1.3,0.9c0-1.1-0.2-2-0.6-2.9
			c-0.4-0.8-1-1.5-1.7-2c-0.8-0.5-1.7-0.7-2.7-0.7c-1.2,0-2.3,0.3-3.1,0.8c-0.9,0.5-1.5,1.3-2,2.2c-0.5,0.9-0.7,2-0.7,3.2
			c0,1.2,0.3,2.2,0.8,3.2c0.5,0.9,1.3,1.7,2.2,2.2c0.9,0.5,2,0.8,3.3,0.8c0.7,0,1.3-0.1,2-0.4c0.7-0.2,1.3-0.5,1.7-0.9
			c0.3-0.2,0.7-0.4,1-0.4c0.4,0,0.7,0.1,1,0.3c0.4,0.3,0.6,0.7,0.6,1.1c0,0.4-0.2,0.7-0.5,1c-0.7,0.6-1.6,1.1-2.7,1.4
			C126.5,42,125.5,42.2,124.5,42.2z"/>
		<path class="st4" d="M137.8,35.7c-0.5,0-0.9-0.2-1.2-0.5c-0.3-0.3-0.5-0.7-0.5-1.2V18.6c0-0.5,0.2-0.9,0.5-1.2
			c0.3-0.3,0.7-0.5,1.2-0.5c0.5,0,0.9,0.2,1.2,0.5c0.3,0.3,0.5,0.7,0.5,1.2V34c0,0.5-0.2,0.9-0.5,1.2
			C138.7,35.5,138.3,35.7,137.8,35.7z M137.8,42.1c-0.5,0-0.9-0.2-1.2-0.5c-0.3-0.3-0.5-0.7-0.5-1.2V26.1c0-0.5,0.2-0.9,0.5-1.2
			c0.3-0.3,0.7-0.5,1.2-0.5c0.5,0,0.9,0.2,1.2,0.5c0.3,0.3,0.5,0.7,0.5,1.2v14.4c0,0.5-0.2,0.9-0.5,1.2
			C138.7,42,138.3,42.1,137.8,42.1z M151.1,42.1c-0.5,0-0.9-0.2-1.2-0.5c-0.3-0.3-0.5-0.7-0.5-1.2v-7.9c0-1.2-0.2-2.2-0.7-3
			c-0.5-0.8-1.1-1.3-1.8-1.7c-0.8-0.4-1.6-0.6-2.6-0.6c-0.9,0-1.7,0.2-2.4,0.5s-1.3,0.9-1.7,1.5c-0.4,0.6-0.6,1.3-0.6,2.1h-2
			c0-1.4,0.3-2.6,1-3.6c0.7-1.1,1.6-1.9,2.7-2.5c1.1-0.6,2.4-0.9,3.8-0.9c1.5,0,2.8,0.3,4,1c1.2,0.6,2.1,1.6,2.8,2.8
			c0.7,1.2,1,2.7,1,4.5v7.9c0,0.5-0.2,0.9-0.5,1.2C151.9,42,151.5,42.1,151.1,42.1z"/>
		<path class="st4" d="M160.2,21.6c-0.6,0-1.1-0.2-1.5-0.6c-0.4-0.4-0.6-0.9-0.6-1.5c0-0.6,0.2-1.1,0.6-1.5c0.4-0.4,0.9-0.6,1.5-0.6
			c0.6,0,1.1,0.2,1.5,0.6c0.4,0.4,0.6,0.9,0.6,1.5c0,0.6-0.2,1.1-0.6,1.5C161.2,21.4,160.7,21.6,160.2,21.6z M160.2,42.1
			c-0.5,0-0.9-0.2-1.2-0.5c-0.3-0.3-0.5-0.7-0.5-1.2V26.1c0-0.5,0.2-0.9,0.5-1.2c0.3-0.3,0.7-0.5,1.2-0.5c0.5,0,0.9,0.2,1.2,0.5
			c0.3,0.3,0.5,0.7,0.5,1.2v14.3c0,0.5-0.2,0.9-0.5,1.2C161,41.9,160.7,42.1,160.2,42.1z"/>
		<path class="st4" d="M173.9,42.1c-0.7,0-1.2-0.4-1.5-1.1l-6.8-14.4c-0.2-0.4-0.2-0.7,0-1.1c0.1-0.4,0.4-0.6,0.8-0.8
			c0.4-0.2,0.7-0.2,1.1-0.1c0.4,0.1,0.7,0.4,0.9,0.7l6.4,13.8h-1.5l6.3-13.8c0.2-0.4,0.5-0.6,0.9-0.7c0.4-0.1,0.8-0.1,1.2,0.1
			c0.4,0.2,0.6,0.4,0.8,0.8c0.1,0.4,0.1,0.7-0.1,1.1L175.4,41C175,41.7,174.5,42.1,173.9,42.1z"/>
		<path class="st4" d="M193.2,42.2c-1.8,0-3.4-0.4-4.8-1.1c-1.4-0.8-2.5-1.8-3.3-3.2c-0.8-1.3-1.2-2.9-1.2-4.6
			c0-1.8,0.4-3.3,1.1-4.7c0.7-1.3,1.8-2.4,3.1-3.2c1.3-0.8,2.8-1.1,4.5-1.1c1.7,0,3.1,0.4,4.3,1.1c1.2,0.7,2.1,1.8,2.8,3.1
			c0.6,1.3,1,2.8,1,4.5c0,0.4-0.1,0.7-0.4,1c-0.3,0.3-0.6,0.4-1.1,0.4h-13v-2.6h12.9l-1.3,0.9c0-1.1-0.2-2-0.6-2.9
			c-0.4-0.8-1-1.5-1.7-2c-0.8-0.5-1.7-0.7-2.7-0.7c-1.2,0-2.3,0.3-3.1,0.8c-0.9,0.5-1.5,1.3-2,2.2c-0.5,0.9-0.7,2-0.7,3.2
			c0,1.2,0.3,2.2,0.8,3.2c0.5,0.9,1.3,1.7,2.2,2.2c0.9,0.5,2,0.8,3.3,0.8c0.7,0,1.3-0.1,2-0.4c0.7-0.2,1.3-0.5,1.7-0.9
			c0.3-0.2,0.7-0.4,1-0.4c0.4,0,0.7,0.1,1,0.3c0.4,0.3,0.6,0.7,0.6,1.1c0,0.4-0.2,0.7-0.5,1c-0.7,0.6-1.6,1.1-2.7,1.4
			C195.2,42,194.2,42.2,193.2,42.2z"/>
	</g>
</g>
</svg>
